<?xml version="1.0" encoding="UTF-8" standalone="no"?>
<svg
   viewBox="0 0 816.89061 128.02442"
   width="816.89062"
   height="128.02441"
   version="1.1"
   id="svg6484"
   xmlns="http://www.w3.org/2000/svg"
   xmlns:svg="http://www.w3.org/2000/svg">
  <desc
     id="desc1">1.dxf - scale = 1.000000, origin = (0.000000, 0.000000), method = manual</desc>
  <defs
     id="defs152" />
  <g
     id="g6423"
     transform="translate(-44837.095,-1940.4752)">
    <path
       style="fill:none;stroke:#000000;stroke-width:3.571;stroke-linecap:round"
       d="m 45623.7,2035.91 26.4,0.82"
       id="path6358" />
    <path
       style="fill:none;stroke:#000000;stroke-width:3.571;stroke-linecap:round"
       d="m 45624,2024.58 -0.3,11.33"
       id="path6359" />
    <path
       style="fill:none;stroke:#000000;stroke-width:3.571;stroke-linecap:round"
       d="m 45624,2024.58 28.2,0.87"
       id="path6360" />
    <path
       style="fill:none;stroke:#000000;stroke-width:3.571;stroke-linecap:round"
       d="m 45652.2,2025.45 v -0.6"
       id="path6361" />
    <path
       style="fill:none;stroke:#000000;stroke-width:3.571;stroke-linecap:round"
       d="m 45563.9,2006.96 88.3,17.89"
       id="path6362" />
    <path
       d="m 45465.761,1989.0365 c 32.843,5.3585 65.555,11.3332 98.139,17.9241"
       style="fill:none;stroke:#000000;stroke-width:3.571;stroke-linecap:round"
       id="path6363" />
    <path
       d="m 45375.052,1974.0008 c 30.278,4.9721 60.477,10.1031 90.709,15.0357"
       style="fill:none;stroke:#000000;stroke-width:3.571;stroke-linecap:round"
       id="path6364" />
    <path
       d="m 45368.757,1972.9721 q 3.073,0.5023 6.294,1.0313"
       style="fill:none;stroke:#000000;stroke-width:3.571;stroke-linecap:round"
       id="path6365" />
    <path
       style="fill:none;stroke:#000000;stroke-width:3.571;stroke-linecap:round"
       d="m 45368.8,1990.81 v -17.84"
       id="path6366" />
    <path
       style="fill:none;stroke:#000000;stroke-width:3.571;stroke-linecap:round"
       d="m 45350.7,1990.81 h 18.1"
       id="path6367" />
    <path
       style="fill:none;stroke:#000000;stroke-width:3.571;stroke-linecap:round"
       d="m 45350.7,1990.81 v -20.76"
       id="path6368" />
    <path
       d="m 45152.691,1945.332 c 65.923,4.9102 132.342,14.1879 198.002,24.7129"
       style="fill:none;stroke:#000000;stroke-width:3.571;stroke-linecap:round"
       id="path6369" />
    <path
       d="m 45146.044,1944.8507 q 3.306,0.2315 6.647,0.4806"
       style="fill:none;stroke:#000000;stroke-width:3.571;stroke-linecap:round"
       id="path6370" />
    <path
       style="fill:none;stroke:#000000;stroke-width:3.571;stroke-linecap:round"
       d="m 45146,1978.43 v -33.58"
       id="path6371" />
    <path
       style="fill:none;stroke:#000000;stroke-width:3.571;stroke-linecap:round"
       d="m 45146,1978.43 h -20.2"
       id="path6372" />
    <path
       style="fill:none;stroke:#000000;stroke-width:3.571;stroke-linecap:round"
       d="m 45125.8,1978.43 v -34.85"
       id="path6373" />
    <path
       d="m 44838.879,1999.8443 c 9.795,-17.149 48.212,-27.6003 70.885,-35.05 22.673,-7.4497 43.837,-12.0622 67.64,-15.6166 47.606,-7.109 99.791,-8.2705 148.404,-5.5978"
       style="fill:none;stroke:#000000;stroke-width:3.571;stroke-linecap:round"
       id="path6374" />
    <path
       style="fill:none;stroke:#000000;stroke-width:3.571;stroke-linecap:round"
       d="m 44880.3,1999.84 h -41.4"
       id="path6375" />
    <path
       style="fill:none;stroke:#000000;stroke-width:3.571;stroke-linecap:round"
       d="m 44880.3,2011.18 v -11.34"
       id="path6376" />
    <path
       style="fill:none;stroke:#000000;stroke-width:3.571;stroke-linecap:round"
       d="m 44880.3,2011.18 h -40.9"
       id="path6377" />
    <path
       d="m 45125.808,2060.9526 c -47.961,-2.0103 -98.785,-6.2151 -145.602,-12.4878 -23.409,-3.1364 -44.264,-6.1295 -66.736,-10.9309 -11.236,-2.4008 -23.229,-5.3956 -37.214,-9.5157 -13.985,-4.1202 -30.879,-9.3235 -36.812,-16.835"
       style="fill:none;stroke:#000000;stroke-width:3.571;stroke-linecap:round"
       id="path6378" />
    <path
       style="fill:none;stroke:#000000;stroke-width:3.571;stroke-linecap:round"
       d="m 45125.8,2060.95 v -34.03"
       id="path6379" />
    <path
       style="fill:none;stroke:#000000;stroke-width:3.571;stroke-linecap:round"
       d="m 45125.8,2026.92 h 20.2"
       id="path6380" />
    <path
       style="fill:none;stroke:#000000;stroke-width:3.571;stroke-linecap:round"
       d="m 45146,2026.92 v 34.89"
       id="path6381" />
    <path
       d="m 45152.691,2062.1003 c -2.218,-0.098 -4.434,-0.1952 -6.647,-0.2915"
       style="fill:none;stroke:#000000;stroke-width:3.571;stroke-linecap:round"
       id="path6382" />
    <path
       d="m 45215.599,2064.8995 c -20.981,-0.8878 -42.044,-1.8775 -62.908,-2.7992"
       style="fill:none;stroke:#000000;stroke-width:3.571;stroke-linecap:round"
       id="path6383" />
    <path
       d="m 45353.799,2066.0358 c -46.061,1.1916 -92.127,0.8132 -138.2,-1.1363"
       style="fill:none;stroke:#000000;stroke-width:3.571;stroke-linecap:round"
       id="path6384" />
    <path
       style="fill:none;stroke:#000000;stroke-width:3.571;stroke-linecap:round"
       d="m 45353.8,2052.34 v 13.7"
       id="path6385" />
    <path
       style="fill:none;stroke:#000000;stroke-width:3.571;stroke-linecap:round"
       d="m 45371.9,2052.34 h -18.1"
       id="path6386" />
    <path
       style="fill:none;stroke:#000000;stroke-width:3.571;stroke-linecap:round"
       d="m 45371.9,2065.49 v -13.15"
       id="path6387" />
    <path
       d="m 45375.052,2065.3746 q -1.595,0.058 -3.19,0.1134"
       style="fill:none;stroke:#000000;stroke-width:3.571;stroke-linecap:round"
       id="path6388" />
    <path
       d="m 45386.097,2064.9429 c -3.682,0.154 -7.364,0.2978 -11.045,0.4317"
       style="fill:none;stroke:#000000;stroke-width:3.571;stroke-linecap:round"
       id="path6389" />
    <path
       d="m 45650.063,2036.7323 c -87.971,14.1504 -175.957,24.5314 -263.966,28.2106"
       style="fill:none;stroke:#000000;stroke-width:3.571;stroke-linecap:round"
       id="path6390" />
    <path
       d="m 45021.935,2005.5136 a 5.6692915,5.6692915 0 0 0 -11.338,0 5.6692915,5.6692915 0 0 0 11.338,0 z"
       style="fill:none;stroke:#000000"
       id="path6391" />
    <path
       d="m 45436.651,2020.0406 a 5.6692915,5.6692915 0 0 0 -11.338,0 5.6692915,5.6692915 0 0 0 11.338,0 z"
       style="fill:none;stroke:#000000"
       id="path6392" />
  </g>
  <g
     id="g6483"
     transform="translate(-44837.095,-1940.4752)">
    <text
       x="45208.262"
       y="2024.978"
       style="font-size:28.346px;font-family:Arial;text-anchor:start;fill:#ff0000"
       id="text6482"><tspan
         dx="0"
         dy="0"
         id="tspan6482"
         x="45208.262"
         y="2024.978">W0</tspan></text>
  </g>
</svg>
